<svg xmlns="http://www.w3.org/2000/svg" viewBox="0 0 85.02 85.93"><defs><style>.cls-1,.cls-3{fill:none;stroke:#fff;stroke-miterlimit:10;}.cls-1{stroke-width:9px;}.cls-2{fill:#fff;}.cls-3{stroke-width:11px;}</style></defs><g id="Layer_2" data-name="Layer 2"><g id="Layer_1-2" data-name="Layer 1"><path class="cls-1" d="M67.52,37.3H79a1.41,1.41,0,0,1,1.5,1.3V80.13a1.41,1.41,0,0,1-1.5,1.3H6a1.42,1.42,0,0,1-1.51-1.3V38.6A1.42,1.42,0,0,1,6,37.3h11.4"/><circle class="cls-2" cx="17.3" cy="37.3" r="4.46"/><circle class="cls-2" cx="67.69" cy="37.3" r="4.46"/><path class="cls-3" d="M59.29,21.55,42.84,5.81a.2.2,0,0,0-.33.15V66"/><line class="cls-3" x1="27" y1="21.4" x2="42.51" y2="5.5"/><circle class="cls-2" cx="42.51" cy="65.97" r="5.52"/><circle class="cls-2" cx="42.51" cy="5.5" r="5.5"/><circle class="cls-2" cx="59.42" cy="21.69" r="5.53"/><circle class="cls-2" cx="27" cy="21.29" r="5.52"/></g></g></svg>