<?xml version="1.0" encoding="utf-8"?>
<!-- Generator: Adobe Illustrator 26.0.2, SVG Export Plug-In . SVG Version: 6.00 Build 0)  -->
<svg version="1.1" id="Layer_1" xmlns="http://www.w3.org/2000/svg" xmlns:xlink="http://www.w3.org/1999/xlink" x="0px" y="0px"
	 viewBox="0 0 67.1 76" style="enable-background:new 0 0 67.1 76;" xml:space="preserve">
<style type="text/css">
	.st0{fill:#FFFFFF;}
</style>
<g id="Layer_2_00000039834853148981214940000017981385746511930293_">
	<g id="Layer_1-2">
		<path class="st0" d="M7.5,0h14.1c4.2,0,7.5,3.4,7.5,7.5v61c0,4.2-3.4,7.5-7.5,7.5H7.5C3.4,76,0,72.6,0,68.5v-61C0,3.4,3.4,0,7.5,0
			z"/>
		<path class="st0" d="M45.5,0h14.1c4.2,0,7.5,3.4,7.5,7.5v61c0,4.2-3.4,7.5-7.5,7.5H45.5c-4.2,0-7.5-3.4-7.5-7.5v-61
			C38,3.4,41.4,0,45.5,0z"/>
	</g>
</g>
</svg>
